<svg version="1.2" xmlns="http://www.w3.org/2000/svg" viewBox="0 0 3752 1868" width="3752" height="1868"><style>.a{fill:#3b82f6}.b{fill:#fdfefe}</style><path class="a" d="m2702.3 30.6c19.7 14 31.8 27.4 41.7 49.4 0 2.6 0 5.3 0 8 5.9-3.1 5.9-3.1 11.9-6.3 66-34.3 124.5-50.6 199.3-50.7 3 0 6 0 9 0 43.7 0 85.3 2.2 127.8 13 2.6 0.6 5.1 1.2 7.7 1.8 99.2 23.6 190 77.7 247 163.4 56.9 93.6 64.2 193.5 41.3 298.8-14.1 57.1-34.1 111.3-60 164-1.9 4-1.9 4-3.9 8.1-31.3 64.2-77.7 129.6-136.1 171.9-2.6 0-5.3 0-8 0 7.4 11.2 14.7 22.3 22.6 33.1 55.5 76.8 67.4 162.3 55.1 255.4-16 73.6-49.4 144.2-77.3 214q-10.9 27.2-21.8 54.4-5.7 14.4-11.5 28.8-7.6 19.1-15.1 38.3c-1.6 4-3.2 8.1-4.8 12.3-1.4 3.8-2.9 7.6-4.4 11.6-1.3 3.4-2.6 6.7-3.9 10.2-5.6 19.1-6.5 39.3-0.1 58.3 7.1 10.4 13.8 14.3 25.2 19.6 49.2 7.6 98.5-6.5 139-34.5q10.7-8.5 21-17.5c3.6-3.1 7.1-6.1 10.8-9.3 83.2-77.4 126.1-190.1 165.4-293.9 16.7-43 44.5-76.7 84.5-100.3 29.9-11.9 67.2-14.1 98.1-5.5 8.8 3.8 17 8.1 25.2 13 4.2 2.3 8.4 4.6 12.7 7 25.8 20.6 44 48 49.1 80.7 7.8 119-81.6 274.5-149.8 368.3-2.9 4-5.7 8-8.7 12.1-17.3 23.6-35.5 45.7-55.3 67.2-6.4 7-12.4 14-18.3 21.4-12.7 14.8-26.7 27-41.7 39.3-3.8 3.1-7.5 6.2-11.4 9.4-93.6 75.7-210.4 121.4-331.2 119.9-8.5-0.1-16.9 0-25.4 0-32.6-0.1-63.9-2.7-96-9.3-3.9-0.8-7.9-1.5-12-2.3-73.9-15-148.1-60-192-121.7-31.7-53.2-48.7-104.4-48.8-166.5 0-4.1 0-8.2-0.1-12.5-0.2-91 41-175 74.2-258.1 43.4-95.4 43.4-95.4 43.8-196.7-10.2-22.5-24.7-33.5-46.1-45.5-23.1-7.3-41.4-3.5-64.2 3.2-33.9 9.8-65.1 13.7-100.6 13.8-4 0.1-8 0.1-12.1 0.2-45.2-0.5-76.2-13.5-108.9-44.3-21.7-23.1-31.3-50.9-37.2-81.6-13.2 30.9-25.3 61.9-36.3 93.6-1.5 4.2-3 8.5-4.5 12.8q-4.8 13.6-9.5 27.2-12.7 36.4-25.5 72.8c-1.7 4.9-3.4 9.8-5.2 14.8-15.7 44.8-31.6 89.6-47.5 134.3q-7.8 22-15.7 44c-1.3 3.6-2.6 7.3-3.9 11q-16.5 46.4-32.8 92.8-17 48-34.1 96-13.4 37.9-26.7 75.9-9 25.9-18.2 51.7-4.3 12.2-8.5 24.4c-21.9 63.5-43.2 113.2-103.6 148.7-48 23.2-106.7 29.5-158.8 15.5-39-14.6-66.7-41.1-89.2-75.5-4 1-7.9 2-12 3.1q-17.2 4.3-34.4 8.5c-10.4 2.6-20.6 5.2-30.8 8.1-96.5 25.1-211.2 9.8-297.5-40-73.6-44.4-126.4-108.3-147.5-192.5-5.6-25.2-7.1-49.3-6.8-75 0-3.8 0.1-7.7 0.1-11.8 0.4-26.4 2.5-50.7 8.9-76.4 1.2-5 2.4-10 3.6-15.2 12.4-50.2 29.1-98.2 47.1-146.6 7.1-19.1 14.1-38.3 21.1-57.5q5.6-15.2 11.2-30.4c18.7-50.7 37-101.5 55.3-152.3q12.3-34.4 24.7-68.7 4.1-11.4 8.3-22.9 27-74.9 54-149.7 6.7-18.6 13.4-37.2 7.4-20.6 14.9-41.1c1.5-4.3 3.1-8.6 4.7-13.1 11.5-31.5 23.3-62.8 35.6-94 15.8-40.8 27.8-85.6 13.6-128.8-11.6-25.5-29.3-45.6-55.8-55.8-45.4-10.4-86.7-6.5-127.2 16.8-44.4 30.2-76.4 69.1-103 115.2-1.4 2.4-2.8 4.8-4.2 7.3-34.2 61.6-53.8 131.7-77 198q-12.4 35-24.8 70.1-3.1 8.9-6.3 17.8c-19.8 56.2-39.8 112.3-60 168.3q-4.6 13-9.2 25.9-7 19.4-13.9 38.7c-18 50.1-35.9 100.3-53.9 150.4q-4.9 14-9.9 28-15.2 42.4-30.3 84.8-7.8 21.9-15.6 43.8-5.2 14.6-10.5 29.2-12.7 35.7-25.5 71.4c-13.7 38.5-27.5 77-41 115.6q-7.7 21.7-15.4 43.5-3.4 9.8-6.8 19.6c-23.2 66.9-51.5 123.6-117.2 156.9-42.4 18.1-94.9 20.1-139.3 7.7-37.5-17.5-65.5-45.1-80.7-83.7-14.7-44.2-3.1-87.6 11.7-130 2.5-7 2.5-7 4.9-14.2 15.6-45.2 32.1-90 48.7-134.7 9.2-24.7 18.4-49.4 27.5-74 0.9-2.6 1.9-5.2 2.9-7.8 21.5-58.3 42.5-116.7 63.4-175.2 30.1-84.2 60.6-168.2 91.6-252.1 27.2-73.4 54.1-146.8 80.5-220.4q5.2-14.7 10.5-29.3 7.3-20.3 14.6-40.6c1.4-4 2.8-7.9 4.3-11.9 20.3-57.2 43.2-132.3 22.6-192.8-12.7-22.8-28.1-36.2-52.1-46.1-41.3-10.8-84.9-4.8-122.2 15-56.3 33.8-90 83.4-116.1 142.5-1.3 3.1-2.7 6.2-4.1 9.4-15.1 34.8-27.6 70.4-40 106.2-5.9 16.8-11.8 33.6-17.6 50.4q-4.7 13.1-9.3 26.3c-15.8 45.2-32 90.3-48.3 135.3q-4.5 12.4-8.9 24.7-7 19.3-13.9 38.5c-18.9 52.4-37.7 104.8-56.5 157.2q-7.3 20.3-14.6 40.6-17.8 49.5-35.6 99-3 8.3-6 16.6c-0.9 2.7-1.9 5.4-2.9 8.3q-4.5 12.4-9 24.8-5.9 16.5-11.8 32.9-14.5 40.5-29.1 80.9-5.6 15.7-11.3 31.4c-0.9 2.6-1.8 5.1-2.8 7.8q-17.6 48.9-34.9 97.9-9.9 27.8-19.8 55.6-4.6 12.8-9.1 25.7c-48.8 138.8-48.8 138.8-121.1 174.3-28.6 13.4-49.5 16.7-80.7 17-3.8 0.2-7.7 0.3-11.6 0.4-40.2 0.4-72.8-13.9-101.9-41.6-29.4-35.2-41.1-73.5-37.4-119.4 8.7-53.8 33.6-107.5 51.6-158.6q5.1-14.4 10.2-28.9c30.8-87.1 61.9-174 93.2-260.9q26.9-75 53.6-150c1.7-4.5 3.3-9.1 5-13.9 27.7-77.6 55.3-155.3 82.8-232.9q44.1-124.4 88.7-248.7 24.8-68.9 49.4-137.9c1.8-5 3.6-9.9 5.4-15 10.3-29.1 10.3-29.1 20.6-58.1q14-39.2 28.1-78.3 5-14 10-28 7.9-22 15.9-44c1.6-4.5 3.2-8.9 4.8-13.6 17.7-48.2 42.6-88.1 89.9-112.6 52-20.5 111.8-23.2 164.2-3.2 28.7 14.2 52.6 31.4 68 60 2.6 9 2.6 9 4 16 3.3-2.5 6.6-5 10-7.6 84.3-63.1 176.7-93.5 283-79.2 77.3 14.5 134.9 60.4 180.8 122.7 3.5 5.2 6.9 10.7 10.2 16.1 13.1-5.5 23.2-13.5 34.1-22.5 109.3-90.3 247.3-127.5 387.7-116.4 87.1 11.3 164.2 53.3 221.7 119.8 47.4 62 68.9 132.9 69.5 210.3 0 3.6 0.1 7.2 0.1 10.8-0.3 59.4-14.7 110.2-35.1 165.2q-4 11.1-8.1 22.2-10.7 29.4-21.5 58.8-10.6 28.7-21.2 57.5-15.3 42-30.8 83.9c-22.6 61.4-45 122.8-67.4 184.3-27.6 75.6-55.2 151.1-83 226.6-21.7 59.1-43.4 118.1-64.8 177.2q-3.4 9.4-6.8 18.8-4.6 12.7-9.2 25.3c-1.7 4.7-3.4 9.4-5.1 14.3-10.4 30.4-13.4 63.1-3.6 94.1 9.9 12.9 16.5 19 31.5 25.8 53.1 6.8 96.4-11.7 137.9-43.6 46.8-39.8 80.7-91 110.1-144.4 1.3-2.4 2.6-4.7 3.9-7.1 22.3-41 39.5-83.9 56.3-127.3 2.7-6.7 2.7-6.7 5.3-13.5 1.6-4 3.1-7.9 4.7-12 4.7-9.9 9.2-16.9 15.7-25.5 11.1-15.1 16.9-30.5 22.8-48.2 1.1-3.3 2.2-6.5 3.4-9.9q3.6-10.5 7.2-21.1c5.1-15.4 10.4-30.8 15.7-46.1q4.2-12.2 8.3-24.4c13.5-39.5 27.5-78.9 41.5-118.3q10.7-30.2 21.4-60.4c2.2-6.1 2.2-6.1 4.4-12.4 17-48.1 34-96.2 50.9-144.3 2.4-6.7 2.4-6.7 4.8-13.6q16.8-47.9 33.7-95.9 35.6-101.4 71.3-202.7 7.1-20.1 14.2-40.3 11.5-32.8 23.1-65.6 4.3-12.1 8.6-24.3c13.5-38.5 27.2-76.9 41.7-115 1.1-2.9 2.2-5.8 3.3-8.7 20.7-53.5 56.1-85.8 106.7-110.6 52.9-22.9 118.4-12.2 165.4 17.8z"/><path class="b" d="m2952.9 389c26.1 17.2 44.7 44.3 51.1 75 3.3 43.3 2.4 86.8-12 128-1.5 4.3-2.9 8.5-4.4 12.9-19.4 53.3-49.8 121.1-103.6 147.1-12.6-0.3-24-4.3-36-8-85.5-22.1-177.6-20.3-256 23.4-19.4 11.5-36.2 24.6-52 40.6-3.3 3.2-6.6 6.4-10 9.8-2 2-4 4.1-6 6.2 14.4-49.9 31.8-98.9 48.7-148q6-17.5 11.9-34.9 7.3-21.3 14.6-42.6 2.8-8 5.5-16c28.1-83.6 82.9-148.8 161.2-189.8 62-29.5 125.1-38.3 187-3.7z"/></svg>